<svg id="Logo" xmlns="http://www.w3.org/2000/svg" width="92" height="92" viewBox="0 0 92 92">
  <rect id="Rectangle_1" data-name="Rectangle 1" width="92" height="92" fill="#ffdc47"/>
  <g id="Group_6" data-name="Group 6" transform="translate(28.093 12.629)">
    <g id="Group_2" data-name="Group 2" transform="translate(0.008 0)">
      <g id="Group_1" data-name="Group 1">
        <path id="Path_1" data-name="Path 1" d="M93.5,228.2a12.972,12.972,0,0,1,4.638,1.912l-7.268-7.268L81.4,232.363a5.194,5.194,0,0,0-.238.909,9.506,9.506,0,0,0,.718,5.354,58.4,58.4,0,0,0,4.588,8.126c2.248,3.442,3.538,6.262,3.873,8.556a7.112,7.112,0,0,1-2.247,6.119,7.993,7.993,0,0,1-5.354,2.629,16.774,16.774,0,0,0,5.546,1.769,15,15,0,0,0,2.484-2.1,11.578,11.578,0,0,0,3.2-7.36c.242-2.82-1.527-7.123-5.257-12.811-2.248-3.442-3.49-6.072-3.825-7.935a6.164,6.164,0,0,1,1.865-5.354,7.234,7.234,0,0,1,6.742-2.055" transform="translate(-72.938 -222.847)" fill="#05253c"/>
        <path id="Path_2" data-name="Path 2" d="M102.556,238.982a11.611,11.611,0,0,0-5.019-3.058,4.076,4.076,0,0,0-4.353,1.052,3.157,3.157,0,0,0-.667,3.3,27.829,27.829,0,0,0,3.442,6.119c3.969,5.785,5.879,10.183,5.833,13.242a10.4,10.4,0,0,1-2.775,7.268c-1.48,1.53-3.772,2.629-6.978,3.2a20.864,20.864,0,0,0,2.436.143,17.359,17.359,0,0,0,12.717-5.258,17.1,17.1,0,0,0,5.211-12.667,20.842,20.842,0,0,0-.144-2.484c-.812.909-1.625,1.816-2.438,2.822s-1.865,2.247-3.25,3.68l-.526-.526a14.047,14.047,0,0,0,.767-9.417,14.86,14.86,0,0,0-4.256-7.41" transform="translate(-76.595 -227.125)" fill="#05253c"/>
        <path id="Path_3" data-name="Path 3" d="M73.3,243.3l-.572.526A17.266,17.266,0,0,0,68.9,254.917c0,3.871.955,6.931,2.915,9.227a8.344,8.344,0,0,0,4.732,3.06,4.829,4.829,0,0,0,4.4-1.339,4.395,4.395,0,0,0,1-4.494c-.523-1.817-2.007-4.541-4.542-8.175-2.437-3.634-3.772-6.787-4.11-9.465V243.3" transform="translate(-68.898 -229.651)" fill="#05253c"/>
      </g>
    </g>
    <g id="Group_3" data-name="Group 3" transform="translate(0.044 46.156)">
      <path id="Path_4" data-name="Path 4" d="M68.969,300.4a1.04,1.04,0,0,1,1.03-.934.679.679,0,0,1,.485.17,1.2,1.2,0,0,0-.254.764.736.736,0,0,0,.764.8.969.969,0,0,0,.958-.97c0-.92-2-.812-2-2.631a1.861,1.861,0,0,1,2.074-1.868c1.031,0,1.528.387,1.528,1.176,0,.679-.4,1.018-.849.994a.98.98,0,0,1-.485-.169,1.1,1.1,0,0,0,.206-.655c0-.448-.254-.655-.546-.655-.327,0-.7.327-.7.983,0,1.288,1.989,1.007,1.989,2.547,0,1.176-.7,2.05-2.484,2.05C69.381,302,68.836,301.211,68.969,300.4Z" transform="translate(-68.95 -293.248)" fill="#05253c"/>
      <path id="Path_5" data-name="Path 5" d="M78.57,297.016a2.348,2.348,0,0,1,1.795-1.213,1.07,1.07,0,0,1,1.019,1.249A2.406,2.406,0,0,1,83.2,295.8c.546,0,1.334.368,1.019,1.782l-.594,2.789c-.073.351.085.5.328.5a2.036,2.036,0,0,0,1.273-.606.321.321,0,0,1,.206.291.422.422,0,0,1-.109.267,3.192,3.192,0,0,1-2.2,1.2c-.606,0-1.248-.3-.946-1.721l.509-2.413c.1-.388.109-.716-.291-.716a1.439,1.439,0,0,0-1.055.557l-.752,3.529a.969.969,0,0,1-1.019.765,1.044,1.044,0,0,1-.569-.158l.849-3.976c.085-.388.109-.716-.292-.716a1.472,1.472,0,0,0-1.115.63l-.736,3.456a.968.968,0,0,1-1.018.764,1.047,1.047,0,0,1-.569-.158l.995-4.656c.049-.194-.012-.3-.121-.3-.061,0-.133.048-.242.145a.443.443,0,0,1,0-.667,2.208,2.208,0,0,1,1.358-.582c.436,0,.691.206.582.667Z" transform="translate(-71.335 -293.273)" fill="#05253c"/>
      <path id="Path_6" data-name="Path 6" d="M93.875,296.132a1.077,1.077,0,0,1,.828-.351,1.047,1.047,0,0,1,.569.158l-.849,4.013c-.145.679.049.9.368.9a2.034,2.034,0,0,0,1.272-.606.321.321,0,0,1,.206.291.421.421,0,0,1-.109.267,3.342,3.342,0,0,1-2.1,1.2c-.569,0-1.14-.267-1.128-1.225A2.459,2.459,0,0,1,91.1,302c-1.26,0-1.515-1.261-1.515-2.038,0-2.122,1.37-4.232,3.055-4.232A1.8,1.8,0,0,1,93.875,296.132Zm-.242.606a1.656,1.656,0,0,0-.569-.1c-1.466,0-1.989,1.915-1.989,3.237,0,.606.276.873.655.873a1.748,1.748,0,0,0,1.225-.764Z" transform="translate(-75.81 -293.248)" fill="#05253c"/>
      <path id="Path_7" data-name="Path 7" d="M98.429,300.4a1.041,1.041,0,0,1,1.031-.934.679.679,0,0,1,.485.17,1.2,1.2,0,0,0-.255.764.736.736,0,0,0,.765.8.969.969,0,0,0,.958-.97c0-.92-2-.812-2-2.631a1.861,1.861,0,0,1,2.074-1.868c1.031,0,1.528.387,1.528,1.176,0,.679-.4,1.018-.849.994a.976.976,0,0,1-.485-.169,1.1,1.1,0,0,0,.206-.655c0-.448-.255-.655-.546-.655-.327,0-.7.327-.7.983,0,1.288,1.989,1.007,1.989,2.547,0,1.176-.7,2.05-2.484,2.05C98.841,302,98.3,301.211,98.429,300.4Z" transform="translate(-78.75 -293.248)" fill="#05253c"/>
      <path id="Path_8" data-name="Path 8" d="M108.765,299.041l.51-2.413c.085-.388.109-.716-.291-.716a1.5,1.5,0,0,0-1.128.644L107.091,300a.968.968,0,0,1-1.018.764.84.84,0,0,1-.509-.121l1.539-7.227c.073-.328-.157-.4-.351-.17a.46.46,0,0,1-.184-.375c0-.276.873-.861,1.527-.861.436,0,.679.206.582.667l-.63,2.971a2.126,2.126,0,0,1,1.613-1.1c.606,0,1.443.351,1.14,1.782l-.594,2.789c-.072.351.086.5.328.5a2.036,2.036,0,0,0,1.273-.606.32.32,0,0,1,.206.291.421.421,0,0,1-.109.267,3.193,3.193,0,0,1-2.2,1.2C109.1,300.762,108.462,300.459,108.765,299.041Z" transform="translate(-81.129 -292.01)" fill="#05253c"/>
      <path id="Path_9" data-name="Path 9" d="M114.888,297.211c.048-.194-.013-.3-.121-.3-.061,0-.133.048-.242.145a.442.442,0,0,1,0-.667,2.208,2.208,0,0,1,1.358-.582c.436,0,.679.206.582.667l-.752,3.5c-.085.375.012.667.412.667a1.349,1.349,0,0,0,.934-.436l.788-3.626a.969.969,0,0,1,1.019-.765,1.048,1.048,0,0,1,.569.158l-1.031,4.8c-.049.206-.1.424-.145.644a2.919,2.919,0,0,1,.509-.049c.5,0,.716.485.558.959a4.04,4.04,0,0,0-1.273-.037c-.558,2.159-1.479,4.317-3.528,4.317a1.328,1.328,0,0,1-1.31-1.491c0-1.5,1.891-2.668,3.529-3.262.073-.266.145-.534.23-.828a2.2,2.2,0,0,1-1.625.994c-1.2,0-1.273-1.188-1.03-2.316Zm1.6,5.48c-1.334.534-2.449,1.431-2.449,2.256a.537.537,0,0,0,.5.57c.838,0,1.333-.837,1.953-2.826Z" transform="translate(-83.675 -293.273)" fill="#05253c"/>
    </g>
    <g id="Group_5" data-name="Group 5" transform="translate(0 56.414)">
      <g id="Group_4" data-name="Group 4" transform="translate(0 0)">
        <path id="Path_10" data-name="Path 10" d="M72.237,314.913a2.459,2.459,0,0,1-1.84,1.225c-1.261,0-1.515-1.261-1.515-2.037,0-2.122,1.37-4.232,3.055-4.232a1.8,1.8,0,0,1,1.164.339l.3-1.418c.073-.327-.157-.4-.351-.17a.46.46,0,0,1-.184-.375c0-.276.873-.861,1.527-.861.436,0,.679.206.582.667l-1.272,6.039c-.146.679.048.9.368.9a2.033,2.033,0,0,0,1.273-.606.321.321,0,0,1,.205.291.422.422,0,0,1-.109.267,3.34,3.34,0,0,1-2.1,1.2C72.77,316.139,72.225,315.871,72.237,314.913Zm.024-.776.691-3.249a1.754,1.754,0,0,0-.582-.109c-1.472,0-1.989,1.916-1.989,3.237,0,.606.276.874.655.874a1.748,1.748,0,0,0,1.225-.765Z" transform="translate(-68.882 -307.383)" fill="#05253c"/>
        <path id="Path_11" data-name="Path 11" d="M79.9,315.425a1.029,1.029,0,0,0,1.128.9,3.594,3.594,0,0,0,2.511-1.309c.315-.061.436.193.3.412a4.416,4.416,0,0,1-3.42,1.952,1.953,1.953,0,0,1-2.062-2.171c0-1.576,1.042-4.1,3.043-4.1,1.1,0,1.38.618,1.38,1.164C82.79,313.3,82.243,314.128,79.9,315.425Zm-.035-.522c1.176-.736,1.977-1.588,1.977-2.377,0-.276-.146-.473-.351-.473C80.292,312.054,79.9,314.054,79.868,314.9Z" transform="translate(-72.036 -308.622)" fill="#05253c"/>
        <path id="Path_12" data-name="Path 12" d="M84.7,315.775a1.041,1.041,0,0,1,1.031-.934.678.678,0,0,1,.485.17,1.206,1.206,0,0,0-.255.764.736.736,0,0,0,.765.8.969.969,0,0,0,.956-.968c0-.92-2-.812-2-2.631a1.862,1.862,0,0,1,2.074-1.868c1.031,0,1.528.387,1.528,1.176,0,.679-.4,1.018-.849.994a.979.979,0,0,1-.485-.169,1.1,1.1,0,0,0,.206-.655c0-.448-.254-.655-.546-.655-.327,0-.7.327-.7.982,0,1.288,1.989,1.006,1.989,2.547,0,1.176-.7,2.05-2.484,2.05C85.11,317.376,84.565,316.588,84.7,315.775Z" transform="translate(-74.138 -308.621)" fill="#05253c"/>
        <path id="Path_13" data-name="Path 13" d="M92.968,311.384c.037-.193-.012-.3-.121-.3-.061,0-.133.049-.242.145a.442.442,0,0,1,0-.667,2.208,2.208,0,0,1,1.358-.582c.436,0,.679.206.582.667l-.736,3.5c-.145.679.049.9.368.9a2.031,2.031,0,0,0,1.273-.606.32.32,0,0,1,.206.291.423.423,0,0,1-.109.267,3.192,3.192,0,0,1-2.2,1.2c-.606,0-1.309-.34-1.079-1.443Zm1.322-3.819a.759.759,0,0,1,.776.849.985.985,0,0,1-.947.848.729.729,0,0,1-.752-.848.942.942,0,0,1,.922-.849Z" transform="translate(-76.647 -307.444)" fill="#05253c"/>
        <path id="Path_14" data-name="Path 14" d="M101.007,317.3c-.546,2.256-1.395,4.644-3.5,4.644a1.38,1.38,0,0,1-1.431-1.491c0-1.5,1.892-2.655,3.528-3.262.086-.3.17-.606.267-.946a2.377,2.377,0,0,1-1.77,1.128c-1.26,0-1.515-1.261-1.515-2.037,0-2.122,1.37-4.232,3.055-4.232a1.762,1.762,0,0,1,1.236.4,1.1,1.1,0,0,1,.837-.351,1.047,1.047,0,0,1,.569.158l-1.018,4.8c-.037.169-.073.339-.109.5a8.7,8.7,0,0,0,1.733-1.055.388.388,0,0,1,.013.606A10.2,10.2,0,0,1,101.007,317.3Zm-1.649.736c-1.334.534-2.45,1.443-2.45,2.256a.538.538,0,0,0,.5.569c.837,0,1.334-.833,1.953-2.822Zm1.3-5.929a1.656,1.656,0,0,0-.569-.1c-1.472,0-1.989,1.915-1.989,3.237,0,.606.276.873.655.873a1.748,1.748,0,0,0,1.225-.765Z" transform="translate(-77.932 -308.622)" fill="#05253c"/>
        <path id="Path_15" data-name="Path 15" d="M110.18,315.351c-.133.618.024.886.266.886.219,0,.5-.145.679-.582.231,0,.368.121.368.328,0,.849-.995,1.419-1.673,1.419-.606,0-1.472-.3-1.164-1.722l.509-2.413c.109-.509-.061-.716-.328-.716a1.716,1.716,0,0,0-1.079.63l-.736,3.456A.968.968,0,0,1,106,317.4a1.053,1.053,0,0,1-.569-.157l.995-4.657c.049-.193-.012-.3-.121-.3-.061,0-.133.049-.242.145a.442.442,0,0,1,0-.667,2.208,2.208,0,0,1,1.358-.582c.436,0,.691.206.582.667l-.121.546a2.628,2.628,0,0,1,1.989-1.214c.644,0,1.091.509.828,1.782Z" transform="translate(-81.041 -308.646)" fill="#05253c"/>
        <path id="Path_16" data-name="Path 16" d="M116.47,318.249a.8.8,0,0,1,.812.849.911.911,0,0,1-.9.848.782.782,0,0,1-.8-.848.891.891,0,0,1,.885-.849Z" transform="translate(-84.419 -310.998)" fill="#05253c"/>
      </g>
    </g>
  </g>
</svg>
